<?xml version="1.0" standalone="no"?>
<!DOCTYPE svg PUBLIC "-//W3C//DTD SVG 20010904//EN"
 "http://www.w3.org/TR/2001/REC-SVG-20010904/DTD/svg10.dtd">
<svg version="1.0" xmlns="http://www.w3.org/2000/svg"
 width="260.000000pt" height="260.000000pt" viewBox="0 0 260.000000 260.000000"
 preserveAspectRatio="xMidYMid meet">
<metadata>
Created by potrace 1.14, written by Peter Selinger 2001-2017
</metadata>
<g transform="translate(0.000000,260.000000) scale(0.100000,-0.100000)"
fill="#000000" stroke="none">
<path d="M280 2510 c0 -5 -7 -10 -15 -10 -26 0 -85 -66 -85 -95 0 -14 -4 -25
-10 -25 -7 0 -10 -350 -10 -1030 0 -680 3 -1030 10 -1030 6 0 10 -27 10 -60 0
-33 4 -60 10 -60 6 0 10 -7 10 -15 0 -25 46 -65 75 -65 14 0 25 -4 25 -10 0
-7 340 -10 1000 -10 660 0 1000 3 1000 10 0 6 9 10 20 10 11 0 20 5 20 10 0 6
9 10 20 10 13 0 20 7 20 20 0 11 5 20 10 20 6 0 10 9 10 20 0 11 5 20 10 20 6
0 10 27 10 60 0 33 4 60 10 60 7 0 10 327 10 960 0 633 -3 960 -10 960 -6 0
-10 33 -10 80 0 47 -4 80 -10 80 -5 0 -10 7 -10 15 0 20 -45 65 -65 65 -8 0
-15 5 -15 10 0 7 -347 10 -1020 10 -673 0 -1020 -3 -1020 -10z m2000 -40 c0
-5 14 -10 30 -10 23 0 30 -4 30 -20 0 -11 5 -20 10 -20 6 0 10 -9 10 -20 0
-11 5 -20 10 -20 7 0 10 -340 10 -1000 0 -660 -3 -1000 -10 -1000 -5 0 -10 -9
-10 -20 0 -11 -4 -20 -10 -20 -5 0 -10 -9 -10 -20 0 -16 -7 -20 -30 -20 -16 0
-30 -4 -30 -10 0 -7 -337 -10 -990 -10 -653 0 -990 3 -990 10 0 6 -7 10 -16
10 -19 0 -44 24 -44 42 0 8 -9 20 -20 28 -20 14 -20 26 -20 1010 0 984 0 996
20 1010 11 8 20 20 20 28 0 18 25 42 44 42 9 0 16 5 16 10 0 7 337 10 990 10
653 0 990 -3 990 -10z"/>
<path d="M943 1855 c-7 -8 -13 -35 -13 -60 l0 -45 -46 0 c-69 0 -74 -10 -74
-140 0 -83 4 -115 14 -126 11 -11 46 -14 150 -14 l136 0 0 60 0 60 140 0 140
0 0 -40 c0 -22 -4 -40 -10 -40 -5 0 -10 5 -10 10 0 6 -13 10 -30 10 -16 0 -30
-4 -30 -10 0 -5 -9 -10 -20 -10 -17 0 -20 -7 -20 -50 l0 -50 -95 0 c-88 0 -98
-2 -120 -25 -19 -18 -25 -35 -25 -65 0 -68 5 -70 214 -70 l186 0 0 60 0 60 60
0 60 0 0 50 0 50 50 0 50 0 0 140 0 140 -50 0 -50 0 0 60 0 60 -297 0 c-245
-1 -300 -3 -310 -15z"/>
<path d="M1053 1165 c-32 -34 -31 -97 2 -130 24 -25 27 -25 200 -25 l175 0 0
90 0 90 -177 -1 c-175 0 -178 -1 -200 -24z"/>
</g>
</svg>
